<?xml version="1.0" encoding="UTF-8"?>
<svg width="84px" height="84px" viewBox="0 0 84 84" version="1.1" xmlns="http://www.w3.org/2000/svg" xmlns:xlink="http://www.w3.org/1999/xlink">
    <title>切片</title>
    <g id="页面-1" stroke="none" stroke-width="1" fill="none" fill-rule="evenodd">
        <g id="Apple-TV备份-3" transform="translate(-244.000000, -3152.000000)" fill="#FF7800" fill-rule="nonzero">
            <g id="GIF" transform="translate(244.000000, 3152.000000)">
                <path d="M72,1 C77.9787016,1 82.8433652,5.76976358 82.9962926,11.7115925 L83,12 L83,72 C83,77.9787016 78.2302364,82.8433652 72.2884075,82.9962926 L72,83 L12,83 C6.02129842,83 1.15663482,78.2302364 1.0037074,72.2884075 L1,72 L1,12 C1,6.02129842 5.76976358,1.15663482 11.7115925,1.0037074 L12,1 L72,1 Z M72,7 L12,7 C9.3112453,7 7.11818189,9.12230671 7.00461951,11.7831104 L7,12 L7,72 C7,74.6887547 9.12230671,76.8818181 11.7831104,76.9953805 L12,77 L72,77 C74.6887547,77 76.8818181,74.8776933 76.9953805,72.2168896 L77,72 L77,12 C77,9.3112453 74.8776933,7.11818189 72.2168896,7.00461951 L72,7 Z M25.432,30 C31.1496471,30 34.2721384,33.1844106 35.0369393,37.0316397 L35.08,37.2632486 L30.04,37.2632486 C29.428,35.0651602 27.916,33.9501878 25.432,33.9501878 C24.1,33.9501878 23.02,34.3643204 22.228,35.1607293 L22.0233391,35.4011382 L22.0233391,35.4011382 L21.8991941,35.5622539 C21.83952,35.6436356 21.7834071,35.7266461 21.7306915,35.8130544 L21.6297418,35.9909257 C21.46888,36.2966755 21.3445529,36.6532826 21.2506915,37.1262651 L21.1979821,37.4245437 L21.1979821,37.4245437 L21.1522931,37.7538974 C21.1452472,37.8115539 21.1384816,37.8706363 21.1319903,37.9312101 L21.0962858,38.3130728 L21.0962858,38.3130728 L21.0668736,38.7338727 L21.0668736,38.7338727 L21.0434623,39.1967546 L21.0434623,39.1967546 L21.0257606,39.7048634 L21.0257606,39.7048634 L21.0134772,40.261344 L21.0134772,40.261344 L21.0045741,41.1936414 L21.0045741,41.1936414 L21.0057818,42.1904903 L21.0057818,42.1904903 L21.0158647,43.0792637 L21.0158647,43.0792637 L21.0362379,43.8583306 L21.0362379,43.8583306 L21.0563138,44.3217872 L21.0563138,44.3217872 L21.0821284,44.7440252 L21.0821284,44.7440252 L21.1141478,45.1280608 C21.1435454,45.4330105 21.179892,45.7013076 21.2244012,45.9408062 L21.2818079,46.214884 C21.3432881,46.4761438 21.4172217,46.7004577 21.505706,46.9013978 L21.5991182,47.0950493 C21.6319241,47.1573378 21.6664245,47.2175318 21.702697,47.2761341 L21.8169085,47.4476683 L21.8169085,47.4476683 L21.9422188,47.6126679 L21.9422188,47.6126679 L22.0790939,47.7741488 L22.0790939,47.7741488 L22.228,47.9351271 L22.228,47.9351271 C22.984,48.7315359 24.064,49.1138122 25.432,49.1138122 C26.908,49.1138122 28.096,48.6996796 28.996,47.839558 C29.698,47.1296164 30.0895918,46.199931 30.1419519,45.0760077 L30.148,44.8132044 L30.148,43.9530829 L25.432,43.9530829 L25.432,40.2577459 L35.116,40.2577459 L35.116,43.5708066 C35.116,46.8838674 34.432,48.827105 32.668,50.4836354 C30.688,52.2675912 28.312,53.064 25.432,53.064 C22.696,53.064 20.392,52.2357348 18.52,50.5792044 C17.404,49.5916575 16.72,48.4448287 16.432,47.1705746 C16.252,46.3741657 16.12825,45.341323 16.06075,44.0720464 L16.027,43.2821084 L16.027,43.2821084 L16.00675,42.4354263 C16.00225,42.1437415 16,41.8425994 16,41.532 C16,39.0472044 16.144,37.1676796 16.432,35.8934254 C16.72,34.5873149 17.404,33.4723425 18.52,32.4847956 C20.392,30.8282652 22.696,30 25.432,30 Z M44.8,30.1911381 L44.8,52.8728619 L39.796,52.8728619 L39.796,30.1911381 L44.8,30.1911381 Z M67.66,30.1911381 L67.66,34.141326 L55.78,34.141326 L55.78,39.7161878 L65.896,39.7161878 L65.896,43.6663757 L55.78,43.6663757 L55.78,52.8728619 L50.776,52.8728619 L50.776,30.1911381 L67.66,30.1911381 Z" id="形状"></path>
            </g>
        </g>
    </g>
</svg>