<?xml version="1.0" encoding="UTF-8"?>
<svg width="84px" height="84px" viewBox="0 0 84 84" version="1.1" xmlns="http://www.w3.org/2000/svg" xmlns:xlink="http://www.w3.org/1999/xlink">
    <title>切片</title>
    <g id="页面-1" stroke="none" stroke-width="1" fill="none" fill-rule="evenodd">
        <g id="Apple-TV备份-3" transform="translate(-70.000000, -3152.000000)" fill="#FF7800" fill-rule="nonzero">
            <g id="picture" transform="translate(70.000000, 3152.000000)">
                <g id="形状-2" transform="translate(1.000000, 1.000000)">
                    <path d="M71,0 C76.9787016,0 81.8433652,4.76976358 81.9962926,10.7115925 L82,11 L82,71 C82,76.9787016 77.2302364,81.8433652 71.2884075,81.9962926 L71,82 L11,82 C5.02129842,82 0.15663482,77.2302364 0.00370740462,71.2884075 L0,71 L0,11 C0,5.02129842 4.76976358,0.15663482 10.7115925,0.00370740462 L11,0 L71,0 Z M28.09,50.402 L7.00961751,74.0132459 C7.87437457,75.1566341 9.21922726,75.9167281 10.7442183,75.9935707 L11,76 L52.912,76 L28.09,50.402 Z M57.075,39.521 L42.446,56.588 L61.27,76 L71,76 C73.6887547,76 75.8818181,73.8776933 75.9953805,71.2168896 L76,71 L76,60.167 L57.075,39.521 Z M71,6 L11,6 C8.3112453,6 6.11818189,8.12230671 6.00461951,10.7831104 L6,11 L6,66.135 L27.9093755,41.5971016 L38.252,52.263 L56.9246564,30.4781286 L76,51.287 L76,11 C76,8.3112453 73.8776933,6.11818189 71.2168896,6.00461951 L71,6 Z" id="形状"></path>
                </g>
            </g>
        </g>
    </g>
</svg>