<?xml version="1.0" encoding="UTF-8"?>
<svg width="120px" height="120px" viewBox="0 0 120 120" version="1.1" xmlns="http://www.w3.org/2000/svg" xmlns:xlink="http://www.w3.org/1999/xlink">
    <title>切片</title>
    <defs>
        <filter id="filter-1">
            <feColorMatrix in="SourceGraphic" type="matrix" values="0 0 0 0 1.000000 0 0 0 0 1.000000 0 0 0 0 1.000000 0 0 0 1.000000 0"></feColorMatrix>
        </filter>
    </defs>
    <g id="页面-1" stroke="none" stroke-width="1" fill="none" fill-rule="evenodd">
        <g id="Apple-TV备份-3" transform="translate(-1051.000000, -3501.000000)">
            <g id="telegram-fill" transform="translate(1051.000000, 3501.000000)" filter="url(#filter-1)">
                <g>
                    <g id="路径">
                        <polygon points="0 0 120 0 120 120 0 120"></polygon>
                    </g>
                    <g id="bxl-telegram" transform="translate(10.000000, 20.000000)" fill="#000000" fill-rule="nonzero">
                        <path d="M91.3319272,0.641049156 L4.61145761,34.0819883 C-1.30685987,36.4590976 -1.27262163,39.7606383 3.52561755,41.2328809 L25.7902298,48.1783443 L77.3040475,15.6765101 C79.7398509,14.1944852 81.9653338,14.9917461 80.1360357,16.615615 L38.3996698,54.2825263 L38.3898875,54.2825263 L38.3996698,54.2874175 L36.8638421,77.2367938 C39.113781,77.2367938 40.1066887,76.2047566 41.3686109,74.9868549 L52.182991,64.4708364 L74.6774884,81.0861458 C78.8252018,83.3703228 81.8039252,82.1964417 82.8359624,77.2465761 L97.6024089,7.65498899 C99.1137808,1.59482759 95.2888848,-1.14911959 91.3319272,0.641049156 Z" id="路径"></path>
                    </g>
                </g>
            </g>
        </g>
    </g>
</svg>