<?xml version="1.0" encoding="UTF-8"?>
<svg width="120px" height="120px" viewBox="0 0 120 120" version="1.1" xmlns="http://www.w3.org/2000/svg" xmlns:xlink="http://www.w3.org/1999/xlink">
    <title>切片</title>
    <defs>
        <filter id="filter-1">
            <feColorMatrix in="SourceGraphic" type="matrix" values="0 0 0 0 1.000000 0 0 0 0 1.000000 0 0 0 0 1.000000 0 0 0 1.000000 0"></feColorMatrix>
        </filter>
    </defs>
    <g id="页面-1" stroke="none" stroke-width="1" fill="none" fill-rule="evenodd">
        <g id="Apple-TV备份-3" transform="translate(-202.000000, -3501.000000)">
            <g id="twitter-fill" transform="translate(202.000000, 3501.000000)" filter="url(#filter-1)">
                <g id="路径">
                    <polygon points="0 0 120 0 120 120 0 120"></polygon>
                    <path d="M110.81,28.28 C106.992785,29.9684686 102.9448,31.0773669 98.8,31.57 C103.168754,28.9571666 106.438527,24.8450711 108,20 C103.9,22.44 99.405,24.15 94.72,25.075 C88.2492476,18.1515976 77.9313878,16.4454452 69.5763314,20.9172646 C61.2212749,25.3890841 56.918144,34.9207288 59.09,44.145 C42.2751127,43.3022163 26.6087194,35.3599729 15.99,22.295 C14.1314506,25.4872516 13.1547757,29.1161336 13.16,32.81 C13.16,40.06 16.85,46.465 22.46,50.215 C19.1400441,50.1104811 15.893162,49.2139028 12.99,47.6 L12.99,47.86 C12.992066,57.815179 20.0075721,66.3906158 29.765,68.365 C26.6830752,69.2001845 23.4515334,69.3232909 20.315,68.725 C23.0506349,77.2459153 30.9022571,83.0838888 39.85,83.25 C31.0897079,90.1300969 19.9537,93.245517 8.895,91.91 C18.4534889,98.0571639 29.5804841,101.32062 40.945,101.310026 C79.41,101.310026 100.445,69.445 100.445,41.81 C100.445,40.91 100.42,40 100.38,39.11 C104.474321,36.1508383 108.007994,32.485097 110.815,28.285 L110.81,28.28 Z" fill="#162040" fill-rule="nonzero"></path>
                </g>
            </g>
        </g>
    </g>
</svg>